<svg width="64" height="64" viewBox="0 0 64 64" fill="none" xmlns="http://www.w3.org/2000/svg">
<path d="M32.0001 26.6667C43.7814 26.6667 53.3334 21.8934 53.3334 16C53.3334 10.1067 43.7814 5.33337 32.0001 5.33337C20.2187 5.33337 10.6667 10.1067 10.6667 16C10.6667 21.8934 20.2187 26.6667 32.0001 26.6667Z" fill="white"/>
<path opacity="0.5" d="M10.6667 32V48C10.6667 53.8933 20.2187 58.6667 32.0001 58.6667C43.7814 58.6667 53.3334 53.8933 53.3334 48V32C53.3334 37.8933 43.7814 42.6667 32.0001 42.6667C20.2187 42.6667 10.6667 37.8933 10.6667 32Z" fill="white"/>
<path opacity="0.7" d="M10.6667 16V32C10.6667 37.8933 20.2187 42.6667 32.0001 42.6667C43.7814 42.6667 53.3334 37.8933 53.3334 32V16C53.3334 21.8933 43.7814 26.6667 32.0001 26.6667C20.2187 26.6667 10.6667 21.8933 10.6667 16Z" fill="white"/>
</svg>
