<svg width="64" height="64" viewBox="0 0 64 64" fill="none" xmlns="http://www.w3.org/2000/svg">
<path fill-rule="evenodd" clip-rule="evenodd" d="M5.5625 1.75C5.9125 1.75 6.6 1.8875 7.1625 2.0625C7.6875 2.2375 8.35 2.5125 8.625 2.6875C8.9 2.8625 9.375 3.2625 9.6875 3.6C10 3.925 10.425 4.5125 11 5.625H15.4125C19.8 5.6125 19.8125 5.625 20.25 5.9C20.4875 6.0625 20.7875 6.3875 20.9 6.625C21.0875 7 21.125 7.4375 21.125 9.6625C21.125 11.0875 21.15 12.25 21.1875 12.25C21.225 12.25 21.9125 11.9125 22.725 11.5125C23.525 11.1 24.775 10.4125 25.5 9.975C26.225 9.55 27.2875 8.85 27.8625 8.4375C28.4375 8.025 29.425 7.2 30.05 6.6125C30.7125 5.9875 31.35 5.5 31.5625 5.45C31.775 5.4 32.1375 5.4 32.375 5.45C32.6875 5.5125 33.15 5.85 33.95 6.6125C34.575 7.2 35.5625 8.025 36.1375 8.4375C36.7125 8.85 37.775 9.55 38.5 9.975C39.225 10.4125 40.475 11.1 41.2875 11.5125C42.0875 11.9125 42.775 12.25 42.8125 12.25C42.85 12.25 42.875 11.0875 42.875 9.65C42.875 7.4375 42.9125 7 43.1 6.625C43.2125 6.3875 43.5125 6.0625 43.75 5.9C44.1875 5.625 44.2 5.6125 53 5.625L53.4125 4.8625C53.625 4.4375 54.0625 3.8375 54.375 3.525C54.6875 3.2125 55.15 2.825 55.4125 2.675C55.6625 2.5125 56.3125 2.2375 56.85 2.0625C57.375 1.8875 58.0625 1.75 58.375 1.75C58.6875 1.75 59.375 1.8875 59.9125 2.0625C60.4375 2.2375 61.1 2.5125 61.375 2.6875C61.65 2.8625 62.1125 3.2375 62.3875 3.5375C62.675 3.825 63.0375 4.2875 63.2 4.5625C63.3625 4.8375 63.6 5.4 63.75 5.8125C63.9 6.2625 64 6.8875 64 7.375C64 7.8375 63.9 8.5375 63.7625 9C63.625 9.45 63.35 10.0625 63.15 10.375C62.9625 10.6875 62.5875 11.15 62.3375 11.4125C62.0875 11.6625 61.65 12.0125 61.375 12.1875C61.1 12.3625 60.5375 12.6125 60.125 12.75C59.625 12.9167 59.0417 13 58.375 13C57.7083 13 57.125 12.9167 56.625 12.75C56.2125 12.6125 55.65 12.3625 55.375 12.1875C55.1 12.0125 54.625 11.6125 54.3125 11.275C54 10.95 53.5875 10.3875 53.0625 9.375H46.625V13.9375L48.8375 14.7625C50.0625 15.225 51.825 15.8375 52.75 16.1375C54 16.5375 54.55 16.775 54.85 17.05C55.075 17.2625 55.325 17.6375 55.3875 17.875C55.45 18.1125 55.5 19.4625 55.5 20.875C55.5 22.2875 55.4125 24.2 55.3125 25.125C55.225 26.05 55.0875 27.05 54.9375 27.875H58.725C62.0625 27.875 62.55 27.9 62.95 28.1C63.2125 28.2125 63.525 28.475 63.6625 28.6875C63.8 28.9 63.95 29.2625 63.975 29.5C64.0125 29.7875 63.95 30.125 63.775 30.5C63.625 30.825 63.3375 31.1625 63.1 31.3125C62.7125 31.55 62.4 31.5625 54.225 31.6875L53.8125 33.1875C53.5875 34.0125 53.25 35.125 53.075 35.6625C52.9 36.1875 52.75 36.65 52.75 36.6875C52.75 36.725 54.0625 36.7625 55.6625 36.775C58.4375 36.8125 58.575 36.825 58.975 37.0875C59.2125 37.2625 59.4625 37.5875 59.575 37.9C59.7 38.2375 59.75 38.6125 59.7 38.9125C59.6625 39.1625 59.475 39.55 59.2875 39.775C59.0875 39.9875 58.75 40.2375 58.5375 40.3375C58.225 40.4625 57.2625 40.5 51.1875 40.4875L50.8375 41.275C50.6375 41.7125 50.1375 42.7125 49.7 43.5C49.275 44.2875 48.5625 45.5125 48.1125 46.225C47.675 46.9375 46.85 48.1625 45.25 50.375H53.0625L53.3625 49.725C53.5375 49.35 53.9875 48.7375 54.425 48.3C54.85 47.875 55.4875 47.4 55.875 47.225C56.25 47.0375 56.8125 46.8375 57.125 46.7625C57.4375 46.6875 58 46.625 58.375 46.625C58.75 46.625 59.35 46.7 59.6875 46.7875C60.0375 46.875 60.5625 47.075 60.875 47.2125C61.1875 47.3625 61.725 47.725 62.0625 48.0375C62.4125 48.3375 62.8625 48.8625 63.0875 49.2C63.3 49.5375 63.6 50.175 63.7375 50.625C63.8875 51.0875 64 51.7625 64 52.1875C64 52.6 63.925 53.2125 63.825 53.5625C63.7375 53.9 63.525 54.4625 63.35 54.8125C63.175 55.15 62.775 55.7125 62.475 56.0625C62.1375 56.4375 61.5625 56.875 61.05 57.15C60.5375 57.425 59.8375 57.675 59.3125 57.7625C58.625 57.8875 58.25 57.9 57.525 57.775C57.0375 57.6875 56.3 57.4625 55.9125 57.2625C55.5125 57.0625 54.9125 56.65 54.5625 56.35C54.1875 56.0125 53.7625 55.4625 53.0625 54.125L42.0625 54.1375L40.375 55.7875C39.45 56.7 38.0375 57.975 37.25 58.6375C36.4625 59.2875 35.3625 60.175 34.8125 60.5875C34.2625 61 33.4875 61.5375 33.1 61.8C32.675 62.0625 32.2125 62.25 32 62.25C31.7875 62.25 31.325 62.0625 30.9125 61.8C30.5125 61.55 29.6 60.8875 28.875 60.3375C28.15 59.7875 27.05 58.9 26.4375 58.3875C25.825 57.8625 24.55 56.7 21.9375 54.1375L10.9375 54.125L10.5375 54.9125C10.325 55.3375 9.875 55.95 9.5375 56.2625C9.2125 56.575 8.5875 57.0125 8.1625 57.225C7.7125 57.45 6.975 57.6875 6.475 57.775C5.7625 57.8875 5.375 57.8875 4.725 57.775C4.25 57.6875 3.55 57.4625 3.1625 57.2625C2.7625 57.0625 2.1625 56.65 1.8125 56.35C1.475 56.0375 1.0125 55.4625 0.7875 55.05C0.5625 54.65 0.3 54.025 0.2 53.6875C0.0875 53.3375 0 52.725 0 52.3125C0 51.9 0.075 51.275 0.1625 50.9375C0.25 50.5875 0.4625 50.025 0.625 49.6875C0.7875 49.3375 1.2625 48.725 1.675 48.3C2.1125 47.875 2.7375 47.4 3.125 47.225C3.5 47.0375 4.0625 46.8375 4.375 46.7625C4.6875 46.6875 5.25 46.625 5.625 46.625C6 46.625 6.5625 46.6875 6.875 46.7625C7.1875 46.8375 7.75 47.0375 8.125 47.225C8.5125 47.4 9.15 47.875 9.575 48.3C10.0125 48.7375 10.4625 49.35 10.9375 50.375H18.75L17.725 48.95C17.15 48.1625 16.325 46.9375 15.8875 46.225C15.4375 45.5125 14.725 44.2875 14.3 43.5C13.8625 42.7125 13.3625 41.7125 12.8125 40.4875L9.3375 40.5C6.7375 40.5 5.775 40.4625 5.475 40.3375C5.25 40.2375 4.9125 39.9875 4.725 39.775C4.525 39.55 4.3375 39.1625 4.3 38.9C4.25 38.6125 4.3 38.2375 4.425 37.9C4.5375 37.5875 4.7875 37.2625 5.0375 37.0875C5.425 36.825 5.5625 36.8125 8.3375 36.775C9.9375 36.7625 11.25 36.725 11.25 36.6875C11.25 36.65 11.1 36.1875 10.925 35.65C10.75 35.125 10.4125 34.0125 9.775 31.6875L5.55 31.625C1.5875 31.5625 1.2875 31.55 0.9125 31.3125C0.6875 31.175 0.3875 30.8375 0.2375 30.5625C0.0375 30.2 -0.025 29.925 0.025 29.5625C0.05 29.2875 0.1875 28.9 0.3375 28.6875C0.475 28.475 0.7875 28.2125 1.05 28.0875C1.45 27.9 1.9375 27.875 5.25 27.875C8.175 27.875 9 27.8375 9 27.7125C8.9875 27.6375 8.9125 27.025 8.8 26.375C8.6875 25.6625 8.5875 23.825 8.55 21.8125C8.5 19.6375 8.5125 18.2625 8.6 17.9375C8.675 17.65 8.9 17.275 9.15 17.0625C9.45 16.775 10.05 16.525 11.4375 16.075C12.4625 15.75 14.225 15.1375 17.375 14V9.375H10.9375L10.6 10.0375C10.4125 10.3875 10 10.95 9.6875 11.275C9.375 11.6125 8.9 12.0125 8.625 12.1875C8.35 12.3625 7.7875 12.6125 7.375 12.75C6.875 12.9167 6.29167 13 5.625 13C4.95833 13 4.375 12.9167 3.875 12.75C3.4625 12.6125 2.9125 12.3625 2.65 12.2C2.4 12.0375 1.9375 11.6625 1.6375 11.3625C1.3375 11.0625 0.9625 10.5875 0.8 10.3125C0.6375 10.0375 0.4 9.475 0.25 9.0625C0.1 8.6125 0 7.9875 0 7.5C0 7.0375 0.1 6.3375 0.2375 5.875C0.375 5.425 0.65 4.8125 0.85 4.5C1.0375 4.1875 1.425 3.725 1.7 3.45C1.9625 3.1875 2.4 2.8375 2.65 2.675C2.9125 2.5125 3.5375 2.2375 4.025 2.075C4.525 1.9 5.2125 1.7625 5.5625 1.75ZM28.375 18.9C27.5625 19.3 27.1 19.6375 26.375 20.3625C25.85 20.9 25.2625 21.6375 25.0375 22.0625C24.8125 22.475 24.5125 23.15 24.375 23.5625C24.1875 24.075 24.075 24.7625 24.025 25.775L23.9375 27.25C23.375 27.4875 22.9875 27.7875 22.7125 28.0625C22.4375 28.3375 22.0875 28.8125 21.95 29.125C21.7 29.675 21.6875 29.85 21.6875 35.8125V41.9375C22.2 43 22.6 43.525 22.8875 43.7875C23.2 44.05 23.7125 44.3375 24.0625 44.45C24.575 44.6 25.95 44.625 32 44.625C38.05 44.625 39.425 44.6 39.9375 44.45C40.2875 44.3375 40.8 44.05 41.1125 43.7875C41.4 43.525 41.8 43 41.9875 42.625L42.3125 41.9375C42.375 32.925 42.3375 30.5 42.2625 30C42.1625 29.4375 42 29.0125 41.725 28.6C41.5 28.275 41.025 27.825 40.6625 27.6L40.0125 27.1875C40 25.475 39.9 24.675 39.75 24.0625C39.6 23.5125 39.275 22.675 39.025 22.1875C38.7375 21.625 38.225 20.975 37.625 20.3625C36.9 19.6375 36.4375 19.3 35.625 18.9C35.0375 18.6125 34.175 18.2875 33.6875 18.1875C33.2 18.0875 32.425 18.0125 31.9375 18.0125C31.45 18.0125 30.7 18.1 30.25 18.2C29.8 18.2875 28.9625 18.6 28.375 18.9ZM32.1875 21.7875C32.7875 21.8125 33.2875 21.925 33.75 22.1375C34.125 22.3125 34.6875 22.7 35 23C35.3 23.3125 35.6875 23.875 35.8625 24.25C36.1125 24.775 36.1875 25.175 36.25 27H27.75L27.7875 25.975C27.8125 25.1875 27.8875 24.775 28.1375 24.25C28.3125 23.875 28.7 23.3125 29 23.0125C29.3125 22.7125 29.725 22.3875 29.9375 22.275C30.1375 22.175 30.5375 22.0125 30.8125 21.9125C31.1 21.825 31.6875 21.7625 32.1875 21.7875ZM38.5625 30.8125L38.625 40.875H25.375L25.35 35.9C25.3375 33.1625 25.375 30.875 25.4375 30.8375C25.5 30.7875 28.475 30.7625 38.5625 30.8125ZM30.7 33.85C30.575 33.9625 30.3875 34.25 30.3 34.475C30.2 34.7 30.125 35.3125 30.125 35.875C30.125 36.6125 30.1875 37 30.3625 37.35C30.5 37.6125 30.8 37.925 31.075 38.0875C31.35 38.2375 31.75 38.3625 31.9625 38.375C32.1875 38.375 32.6 38.2625 32.875 38.125C33.2083 37.9583 33.4583 37.7083 33.625 37.375C33.8125 37 33.875 36.625 33.875 35.875C33.875 35.3125 33.8 34.7 33.7 34.475C33.6125 34.25 33.4 33.9375 33.2375 33.8C33.075 33.65 32.8 33.4875 32.625 33.4375C32.45 33.4 32.225 33.3375 32.125 33.3125C32.025 33.2875 31.7125 33.35 31.4375 33.45C31.1625 33.55 30.8375 33.725 30.7 33.85Z" fill="#704FE6"/>
</svg>
