<svg width="64" height="64" viewBox="0 0 64 64" fill="none" xmlns="http://www.w3.org/2000/svg">
<path d="M22.1875 5.67503C21.6375 5.82503 20.9 6.07503 20.5625 6.23753C20.2125 6.38753 19.6 6.76253 19.1875 7.05003C18.775 7.35003 18.1375 7.92503 17.7625 8.32503C17.4 8.72503 16.875 9.46253 16.6125 9.93753C16.35 10.4125 16.125 10.95 16.125 11.125C16.125 11.3 16.35 11.9125 16.65 12.5C16.9875 13.1875 17.45 13.85 17.95 14.375C18.4375 14.9 19.025 15.35 19.575 15.65C20.05 15.9 20.775 16.2 21.1875 16.325C21.725 16.4875 22.4 16.55 23.5375 16.55C25.1 16.5625 25.15 16.575 25.3875 16.875C25.525 17.05 25.6375 17.3125 25.625 17.475C25.625 17.625 25.4875 17.9 25.325 18.1L25.025 18.4375C21.2 18.425 20.9875 18.4 20.0625 18.0875C19.5125 17.8875 18.6625 17.4875 18.1875 17.1875C17.7125 16.9 16.975 16.3 16.5625 15.8625C16.15 15.425 15.5875 14.7 15.325 14.25C15.05 13.8 14.825 13.425 14.825 13.4C14.8125 13.375 14.475 13.45 14.0625 13.5625C13.65 13.675 12.8625 14 12.3125 14.2875C11.6125 14.65 11.025 15.0875 10.3625 15.75C9.8375 16.2625 9.2 17.05 8.95 17.5C8.6875 17.95 8.325 18.7375 8.15 19.25C7.9 19.9875 7.8125 20.5625 7.75 21.9375C7.675 23.2375 7.5875 23.8625 7.4 24.375C7.25 24.75 6.825 25.4375 6.4375 25.9125C6.0625 26.375 5.5625 27.05 5.3375 27.4125C5.1125 27.7625 4.8 28.35 4.65 28.6875C4.5125 29.0375 4.3 29.725 4.2 30.225C4.0875 30.7125 4 31.55 4 32.0625C4 32.575 4.0875 33.375 4.2 33.85C4.3 34.3125 4.5125 34.975 4.6625 35.3125C4.8 35.6625 5.1125 36.2375 5.3375 36.6C5.5625 36.95 6.0625 37.625 6.4375 38.1C6.825 38.5625 7.25 39.25 7.4 39.625C7.5875 40.1375 7.675 40.775 7.75 42.125C7.825 43.45 7.925 44.1625 8.125 44.75C8.275 45.2 8.6 45.925 8.85 46.375C9.1 46.825 9.65 47.55 10.075 48C10.4875 48.45 11.2 49.05 11.6375 49.3375C12.075 49.625 12.9 50.0375 13.475 50.25C14.0375 50.45 14.5375 50.625 14.6 50.625C14.65 50.625 14.8875 50.325 15.125 49.975C15.3625 49.625 15.9 49.0375 16.3125 48.6625C16.725 48.2875 17.5125 47.775 18.0625 47.5C18.6125 47.2375 19.5125 46.9125 20.0625 46.8C20.75 46.6375 21.55 46.575 22.625 46.575C23.4875 46.5875 24.4 46.65 24.6625 46.725C24.9125 46.8125 25.175 46.9875 25.25 47.125C25.325 47.2625 25.375 47.55 25.375 47.75C25.375 47.9625 25.2625 48.2375 25.125 48.375C24.9 48.6 24.725 48.625 22.9625 48.6C21.4625 48.575 20.8875 48.625 20.25 48.8C19.8 48.925 19.15 49.175 18.8125 49.35C18.4625 49.525 17.9125 49.925 17.575 50.2375C17.2375 50.55 16.7375 51.15 16.475 51.5625C16.2125 51.975 16 52.4375 16 52.6C16 52.75 16.225 53.3125 16.4875 53.85C16.775 54.3875 17.325 55.1875 17.775 55.675C18.2125 56.15 18.9 56.7625 19.3125 57.0375C19.725 57.325 20.3625 57.675 20.725 57.8375C21.075 58 21.85 58.2375 22.4375 58.375C23.025 58.5125 23.825 58.625 24.225 58.625C24.6125 58.625 25.4125 58.5125 26 58.375C26.5875 58.225 27.5375 57.875 28.125 57.5875C28.8125 57.2375 29.4875 56.775 30.0875 56.225L31 55.375V29.375C30.375 29.4625 29.7625 29.525 29.25 29.575C28.6625 29.625 27.8875 29.5875 27.1875 29.4875C26.575 29.3875 25.5875 29.325 25 29.3375C24.4125 29.3375 23.575 29.45 23.125 29.5625C22.675 29.675 22.0375 29.925 21.7 30.1C21.3625 30.2875 20.7875 30.775 20.425 31.1875C19.8375 31.8375 19.7 31.9375 19.3 31.9375C18.975 31.9375 18.7875 31.85 18.6125 31.625C18.475 31.45 18.375 31.15 18.375 30.9375C18.375 30.725 18.5625 30.325 18.8 30C19.0375 29.6875 19.525 29.2 19.8875 28.925C20.2625 28.6375 20.7875 28.2875 21.0625 28.15C21.3375 28.0125 21.8 27.8375 22.1 27.7625L22.625 27.625C21.7375 26.5125 21.3125 25.85 21.1125 25.4375C20.9125 25.025 20.725 24.5 20.6875 24.2875C20.6375 23.95 20.7 23.8 20.9875 23.5C21.1875 23.3 21.45 23.125 21.55 23.125C21.6625 23.125 21.8875 23.175 22.0625 23.25C22.2875 23.3375 22.5 23.65 22.7875 24.2875C23.0125 24.775 23.45 25.4625 23.75 25.8C24.0625 26.125 24.5375 26.5375 24.8125 26.7C25.0875 26.8625 25.65 27.1125 26.0625 27.2625C26.7 27.5 27.0625 27.5375 28.4375 27.525C29.3375 27.525 30.2625 27.475 30.5 27.4125L30.9375 27.3L31 8.62503C29.4875 7.22503 28.8125 6.76253 28.125 6.41253C27.5375 6.12503 26.6 5.77503 26.025 5.63753C25.4125 5.47503 24.6375 5.37503 24.1 5.38753C23.5875 5.40003 22.7375 5.52503 22.1875 5.67503ZM37.8125 5.67503C37.2625 5.82503 36.5625 6.06253 36.25 6.20003C35.9375 6.33753 35.4125 6.63753 35.0625 6.87503C34.725 7.11253 34.1125 7.61253 33.7125 7.98753L32.9875 8.68753L33 23C37.9625 22.9375 38.2375 22.9125 38.6875 22.675C38.9625 22.525 39.35 22.2125 39.55 21.9875C39.75 21.75 40 21.3625 40.1 21.125C40.2125 20.85 40.3125 20.0875 40.35 19.125L40.425 17.5625C39.6125 17.025 39.25 16.75 39.1125 16.6C38.9625 16.4375 38.7375 16.0875 38.6125 15.8125C38.4625 15.5 38.375 15.025 38.375 14.5625C38.375 14.0375 38.4625 13.65 38.6625 13.2625C38.8125 12.95 39.1375 12.5375 39.3875 12.325C39.6375 12.1125 40.0625 11.8625 40.325 11.7875C40.5875 11.7 41.075 11.625 41.4125 11.625C41.7375 11.625 42.1875 11.7 42.4125 11.7875C42.625 11.8875 43.0375 12.15 43.3 12.3875C43.575 12.625 43.9 13.0625 44.0375 13.375C44.1875 13.7125 44.2875 14.2125 44.2875 14.625C44.2875 15.1625 44.2 15.4625 43.9125 16C43.6625 16.4625 43.3375 16.8125 42.9625 17.0625L42.3875 17.4375C42.375 19.275 42.3125 20.1875 42.25 20.6625C42.175 21.125 41.975 21.8 41.8 22.1625C41.6125 22.5125 41.325 22.9875 41.15 23.1875C40.9875 23.4 40.55 23.775 40.2 24.0375C39.85 24.3 39.2 24.625 38.75 24.7625C38.0625 24.9625 37.5625 25 35.4625 25H33V28.375H44.9375C45.9125 27.925 46.35 27.6 46.55 27.3625C46.75 27.125 47 26.7375 47.1 26.5C47.2125 26.225 47.3125 25.4875 47.35 24.5L47.4125 22.9375C46.325 22.25 46.0125 21.925 45.75 21.475C45.45 20.9375 45.375 20.6625 45.375 20.0375C45.375 19.6 45.45 19.0625 45.5375 18.85C45.6375 18.625 45.875 18.25 46.075 18.0125C46.275 17.775 46.725 17.45 47.0625 17.2875C47.45 17.1125 47.925 17 48.3125 17C48.7 17 49.175 17.1125 49.5625 17.2875C49.9125 17.45 50.35 17.775 50.55 18.0125C50.75 18.25 51 18.6375 51.1 18.875C51.2 19.1125 51.275 19.625 51.275 20C51.275 20.4625 51.1875 20.8875 50.9875 21.3C50.825 21.6375 50.5125 22.05 50.3125 22.225C50.1125 22.4 49.8125 22.6 49.65 22.675C49.3875 22.8 49.3625 22.8875 49.375 24C49.375 24.65 49.3125 25.5625 49.25 26.0375C49.175 26.5 48.975 27.2 48.7875 27.6C48.6 27.9875 48.175 28.575 47.85 28.9125C47.5125 29.2375 46.875 29.6875 46.4 29.9125L45.5625 30.3125L33 30.375V33.625L45.5625 33.6875C46.875 34.3125 47.5125 34.7625 47.85 35.1C48.175 35.425 48.6 36.0125 48.7875 36.4125C48.975 36.8 49.175 37.5 49.25 37.975C49.3125 38.4375 49.375 39.35 49.375 40V41.1875C50.075 41.575 50.425 41.8625 50.6 42.0625C50.775 42.2625 51 42.6375 51.1 42.875C51.2 43.1125 51.275 43.625 51.275 44C51.275 44.375 51.2 44.8875 51.1 45.125C51 45.3625 50.75 45.75 50.55 45.9875C50.35 46.225 49.9 46.55 49.5625 46.7125C49.175 46.8875 48.7 47 48.3125 47C47.925 47 47.45 46.8875 47.0625 46.7125C46.7125 46.55 46.275 46.225 46.075 45.9875C45.875 45.75 45.6375 45.375 45.5375 45.1625C45.45 44.9375 45.375 44.4 45.375 43.975C45.375 43.3625 45.45 43.05 45.725 42.5625C45.9625 42.125 46.2625 41.8 46.7375 41.5L47.4 41.0625C47.3125 38.5125 47.2125 37.775 47.1 37.5C47 37.2625 46.75 36.875 46.55 36.6375C46.35 36.4 45.9125 36.075 45.5625 35.9125L44.9375 35.625H33V39C37.5625 39 38.0625 39.0375 38.75 39.2375C39.2 39.375 39.85 39.7 40.2 39.9625C40.55 40.225 40.9875 40.6125 41.15 40.8125C41.325 41.0125 41.6125 41.4875 41.8 41.85C41.975 42.2 42.175 42.875 42.25 43.35C42.3125 43.8125 42.375 44.725 42.375 45.375L42.3875 46.5625C43.3625 47.1875 43.6625 47.5375 43.9125 48C44.2 48.525 44.2875 48.85 44.2875 49.375C44.2875 49.7875 44.1875 50.2875 44.0375 50.625C43.9 50.9375 43.575 51.375 43.3 51.6125C43.0375 51.85 42.625 52.1125 42.4125 52.2125C42.1875 52.3 41.7375 52.375 41.4125 52.375C41.075 52.375 40.5875 52.3 40.325 52.2125C40.0625 52.1375 39.6375 51.8875 39.3875 51.675C39.1375 51.4625 38.8125 51.05 38.6625 50.7375C38.4625 50.35 38.375 49.9625 38.375 49.4375C38.375 48.8875 38.45 48.5125 38.675 48.0625C38.9 47.6125 39.175 47.3 39.6875 46.9375L40.4 46.4375C40.3125 43.8875 40.2125 43.15 40.1 42.875C40 42.6375 39.75 42.25 39.55 42.0125C39.35 41.7875 38.9625 41.475 38.6875 41.325C38.2375 41.0875 37.9625 41.0625 35.5875 41.0375L33 41V55.3125C34.1125 56.4 34.725 56.9 35.0625 57.1375C35.4125 57.3625 35.9875 57.675 36.35 57.8375C36.7 58 37.45 58.2375 38 58.375C38.55 58.5125 39.3375 58.625 39.75 58.625C40.1625 58.625 40.975 58.5125 41.5625 58.375C42.15 58.2375 42.925 58 43.2875 57.8375C43.6375 57.675 44.275 57.325 44.6875 57.0375C45.1 56.7625 45.7875 56.15 46.225 55.675C46.725 55.1375 47.225 54.4125 47.55 53.75C47.85 53.1625 48.1875 52.2625 48.3 51.75L48.5 50.8125C49.7125 50.55 50.35 50.3625 50.6875 50.225C51.0375 50.0875 51.7 49.7375 52.1875 49.4375C52.675 49.1375 53.375 48.575 53.7625 48.1625C54.15 47.7625 54.675 47.1 54.9375 46.6875C55.2 46.275 55.5875 45.4875 55.7875 44.9375C56.1 44.0875 56.1625 43.675 56.25 42.125C56.325 40.7625 56.4125 40.1375 56.6 39.625C56.75 39.25 57.1625 38.575 57.5375 38.125C57.9 37.675 58.3125 37.1375 58.4625 36.9375C58.6125 36.7375 58.9 36.2125 59.1125 35.7875C59.325 35.35 59.6125 34.5375 59.75 33.975C59.8875 33.4 60 32.5 60 31.975C60 31.4 59.8875 30.575 59.7375 29.975C59.6 29.4 59.3125 28.6 59.1 28.1875C58.9 27.775 58.6125 27.275 58.4625 27.0625C58.3125 26.8625 57.9 26.325 57.5375 25.875C57.1625 25.425 56.75 24.75 56.6 24.375C56.4125 23.8625 56.325 23.2375 56.25 21.875C56.175 20.35 56.1 19.9125 55.8125 19.125C55.6125 18.6125 55.2625 17.85 55.025 17.4375C54.7875 17.025 54.1625 16.2625 53.6375 15.7375C52.9125 15.025 52.425 14.6625 51.5625 14.225C50.9 13.9 50.0375 13.575 49.4625 13.45L48.5 13.25C48.2125 11.85 47.925 11.0125 47.675 10.5C47.425 9.98753 47.05 9.33753 46.8375 9.06253C46.625 8.78753 46.225 8.31253 45.95 8.02503C45.6625 7.72503 45.1 7.25003 44.6875 6.96253C44.275 6.68753 43.6375 6.32503 43.2875 6.16253C42.925 6.00003 42.175 5.76253 41.625 5.62503C41.0375 5.47503 40.25 5.37503 39.725 5.38753C39.2125 5.40003 38.3625 5.52503 37.8125 5.67503Z" fill="#25252B"/>
</svg>
