<svg width="64" height="64" viewBox="0 0 64 64" fill="none" xmlns="http://www.w3.org/2000/svg">
<g clip-path="url(#clip0_16_260)">
<path d="M9.04995 1.225C8.89995 1.3375 8.71245 1.5625 8.63745 1.7125C8.53745 1.9125 8.49995 4.425 8.49995 10.275C8.49995 15.275 8.54995 18.9125 8.63745 19.4375C8.69995 19.9125 8.89995 20.7375 9.07495 21.25C9.24995 21.7625 9.62495 22.5875 9.89995 23.0625C10.1875 23.5375 10.8375 24.3625 11.3625 24.875C11.8875 25.4 12.65 26.025 13.0625 26.275C13.475 26.5375 14.2625 26.9 14.8125 27.1C15.3625 27.3125 16.2625 27.5375 16.8125 27.625C17.3875 27.7125 18.2125 27.75 18.75 27.7C19.2625 27.6625 20.0875 27.5125 20.5625 27.375C21.0375 27.2375 21.75 26.975 22.125 26.8C22.5 26.625 23.15 26.2375 23.5625 25.95C23.975 25.65 24.65 25.05 25.0625 24.6125C25.475 24.175 26.025 23.475 26.275 23.0625C26.525 22.65 26.9 21.8625 27.1124 21.3125C27.3125 20.7625 27.5375 19.8625 27.625 19.3125C27.7125 18.6125 27.75 15.7625 27.725 9.9625L27.6875 1.6C26.95 1.0125 26.85 1 25.0875 1C23.5375 1 23.2 1.0375 22.9375 1.225C22.7625 1.3375 22.5749 1.525 22.525 1.625C22.475 1.725 22.4125 5.75 22.375 10.5625L22.3125 19.3125C21.775 20.325 21.4625 20.8125 21.2625 21.0375C21.075 21.25 20.5499 21.6375 20.1124 21.875C19.3624 22.2875 19.2374 22.3125 18.1875 22.3125C17.325 22.3125 16.9375 22.25 16.5 22.05C16.1875 21.9125 15.6875 21.575 15.3875 21.3C15.0875 21.0375 14.7125 20.6125 14.5625 20.375C14.4125 20.1375 14.2125 19.7375 14.1125 19.5C13.975 19.1375 13.925 17.4375 13.875 10.3375L13.8125 1.6C13.075 1.0125 12.975 1 11.1875 1C9.59995 1 9.27495 1.0375 9.04995 1.225ZM33.4375 1.35C33.1624 1.625 33.0749 1.8 33.0999 2.1375C33.125 2.475 33.9375 3.6875 37.1875 8.25C40.6124 13.0625 41.2374 14 41.25 14.375C41.25 14.75 40.7 15.5875 37.1875 20.5375C33.9 25.1625 33.125 26.325 33.125 26.6625C33.1124 26.875 33.2249 27.2 33.3624 27.375C33.5999 27.675 33.65 27.6875 35.4 27.725C37.0125 27.7625 37.2125 27.75 37.5 27.525C37.6749 27.4 39.0499 25.55 40.5625 23.425C42.075 21.3 43.4375 19.4375 43.5875 19.2875C43.7375 19.125 44.0125 19 44.2125 19C44.4 19 44.6749 19.075 44.8125 19.1625C44.95 19.2625 46.3624 21.15 47.9375 23.375C49.5125 25.5875 50.9249 27.4875 51.0625 27.575C51.2374 27.7 51.7874 27.75 53 27.75C54.4625 27.7625 54.7249 27.725 55 27.525C55.1749 27.4 55.3499 27.1375 55.4124 26.9625C55.4624 26.7375 55.4375 26.4875 55.2999 26.2125C55.2 26 53.3375 23.3375 51.1875 20.3125C48.2125 16.15 47.2625 14.725 47.25 14.4375C47.2374 14.1375 48.0625 12.9 51.3125 8.3125C53.5499 5.15 55.4125 2.45 55.45 2.3125C55.4874 2.175 55.4499 1.9 55.3499 1.7125C55.2624 1.5125 55.0625 1.275 54.9124 1.175C54.6999 1.05 54.1749 1 52.9749 1C51.4375 1 51.2874 1.025 50.9874 1.2875C50.7999 1.4375 49.4 3.3375 47.875 5.5C46.3499 7.6625 45 9.5125 44.8875 9.6C44.775 9.6875 44.4874 9.75 44.25 9.75C43.9625 9.75 43.7249 9.6625 43.5374 9.475C43.3874 9.3125 42.0499 7.475 40.5625 5.375C39.075 3.275 37.7125 1.4375 37.525 1.2875C37.2125 1.025 37.0625 1 35.4874 1C33.7999 1 33.7999 1 33.4375 1.35ZM0.624951 31.1C0.374951 31.2125 0.137451 31.4625 0.0624512 31.65C-0.0250488 31.8875 -0.0250488 32.1125 0.0624512 32.3375C0.137451 32.5375 0.374951 32.7875 0.624951 32.9C1.03745 33.1125 2.79995 33.125 32 33.125C61.2 33.125 62.9625 33.1125 63.375 32.9C63.625 32.7875 63.8624 32.5375 63.9375 32.3375C64.0249 32.1125 64.0249 31.8875 63.9375 31.65C63.8624 31.4625 63.625 31.2125 63.375 31.1C62.9625 30.8875 61.2 30.875 32 30.875C2.79995 30.875 1.03745 30.8875 0.624951 31.1ZM8.91245 36.55L8.56245 36.85C8.56245 53.9125 8.58745 54.7625 8.78745 55.5625C8.91245 56.05 9.26245 56.95 9.56245 57.5625C9.86245 58.175 10.3875 59.025 10.725 59.4375C11.0625 59.85 11.7375 60.4875 12.2 60.85C12.675 61.225 13.45 61.7125 13.9375 61.95C14.4125 62.1875 15.375 62.5125 16.0625 62.6875C16.75 62.8625 17.65 63 18.0625 63C18.475 63 19.375 62.8625 20.0625 62.6875C20.75 62.5125 21.7625 62.1625 22.3125 61.8875C22.8624 61.6125 23.6875 61.075 24.15 60.7C24.625 60.3125 25.25 59.675 25.5625 59.2875C25.875 58.8875 26.3499 58.1375 26.6124 57.625C26.8874 57.1125 27.2375 56.2625 27.3875 55.75C27.675 54.8125 27.6749 54.7875 27.7125 45.9L27.75 37L27 36.25C23.1875 36.25 23.1124 36.2625 22.775 36.55L22.4375 36.85L22.3125 54.4375C21.7999 55.5125 21.35 56.0875 20.975 56.4375C20.55 56.85 20.075 57.1625 19.625 57.3125C19.1875 57.4625 18.6124 57.55 18.0625 57.55C17.3875 57.55 17.025 57.475 16.5 57.225C16.125 57.05 15.5625 56.6875 15.2625 56.425C14.95 56.1375 14.5625 55.6125 14.325 55.125L13.9375 54.3125L13.8125 36.85C13.1375 36.2625 13.0625 36.25 11.2 36.25C9.33745 36.25 9.24995 36.2625 8.91245 36.55ZM34.5 36.6125L34.15 36.975L34.125 40.875L34.875 41.625H42L42.625 42.25C42.6124 55.175 42.575 56.9875 42.4625 57.1375C42.375 57.25 42.1875 57.4 42.025 57.475C41.8375 57.575 40.675 57.625 38.275 57.625C34.975 57.625 34.8 57.6375 34.525 57.875C34.375 58.0125 34.2124 58.25 34.1749 58.4125C34.1375 58.5625 34.125 59.525 34.15 60.5375L34.1875 62.4L34.9375 63C53.975 63 54.7125 62.975 54.95 62.775C55.1 62.6625 55.2874 62.4375 55.3624 62.2875C55.45 62.1125 55.5 61.275 55.5 60.1875C55.5 58.4375 55.4874 58.3625 55.1875 58L54.875 57.625C48.5125 57.625 47.8125 57.5875 47.5 57.4375C47.2374 57.3125 47.0874 57.1 46.9874 56.7875C46.8999 56.475 46.875 53.9625 46.9 49.2875L46.9375 42.2625C47.5 41.6875 47.5625 41.6875 51.1875 41.625C54.8125 41.5625 54.875 41.5625 55.15 41.275C55.425 41 55.4375 40.9125 55.4375 38.925V36.85L54.75 36.25H34.8499L34.5 36.6125Z" fill="#704FE6"/>
</g>
<defs>
<clipPath id="clip0_16_260">
<rect width="64" height="64" fill="white"/>
</clipPath>
</defs>
</svg>
