<svg width="190" height="43" viewBox="0 0 190 43" fill="none" xmlns="http://www.w3.org/2000/svg">
<path d="M5.5 24.0922C7.88066 23.3686 9.70669 14.9165 11.1646 12.2325C14.1265 6.77937 16.6089 5.9575 21.3608 6.01573C36.3434 6.19934 46.1228 27.3953 58.7468 36.8126C66.212 42.3815 72.2961 26.9648 75.7405 19.5013C79.585 11.1709 86.2175 8.09679 92.7342 9.65015C102.753 12.0382 110.047 24.5832 119.672 27.1049C125.404 28.6067 128.721 23.6993 132.638 18.1623C135.375 14.2928 137.72 8.05456 141.135 5.63316C142.463 4.69117 144.712 5.01499 146.107 5.25059C152.923 6.40139 159.653 15.515 165.461 20.6012C168.601 23.3511 172.595 28.1978 176.255 29.209C178.867 29.9307 181.846 29.2569 184.5 29.2569" stroke="#FFD25D" stroke-width="10" stroke-linecap="round"/>
</svg>
