<svg width="64" height="64" viewBox="0 0 64 64" fill="none" xmlns="http://www.w3.org/2000/svg">
<path fill-rule="evenodd" clip-rule="evenodd" d="M3 3.75L34.1875 3.8125L34.25 9.7125C34.3125 15.1625 34.325 15.6375 34.5375 15.8375C34.7375 16.05 35.2125 16.0625 46.5625 16.1875V20.5625L45.625 20.525C45.1125 20.5 44.125 20.5625 43.4375 20.6625C42.75 20.775 41.75 21 41.2125 21.175C40.6875 21.35 39.875 21.6875 39.4 21.925C38.9375 22.1625 38.175 22.625 37.6875 22.975C37.2 23.3125 36.45 23.95 36.0125 24.3875C35.575 24.825 34.9375 25.5875 34.6 26.0625C34.25 26.5375 33.7875 27.3 33.5625 27.75C33.3375 28.2 33 29.0125 32.825 29.5625C32.6375 30.1125 32.4 31.125 32.2875 31.8125C32.1625 32.6375 32.125 33.475 32.175 34.25C32.2125 34.9 32.325 35.85 32.4375 36.3375C32.5375 36.8375 32.8125 37.75 33.025 38.35C33.25 38.95 33.7125 39.9125 34.0625 40.4875C34.4 41.05 35.1125 41.975 35.625 42.5375C36.1375 43.0875 36.9875 43.8625 37.5 44.2375C38.0125 44.625 38.9125 45.175 39.5 45.4625C40.0875 45.75 41.1 46.125 41.75 46.3C42.4 46.475 43.525 46.6875 44.25 46.75C44.975 46.825 45.7875 46.8625 46.5625 46.8125V60.1875L3 60.25V3.75ZM17.6875 10.1V17.475L18.3125 18.1375C24.6875 18.125 25.7375 18.075 25.8875 17.9625C26.0125 17.8875 26.1625 17.675 26.225 17.5C26.3 17.3125 26.3125 16.875 26.25 16.375C26.2 15.925 26.0875 15.3125 26 15C25.925 14.6875 25.6625 14.075 25.425 13.625C25.2 13.175 24.7 12.475 24.3375 12.0625C23.975 11.65 23.3375 11.0875 22.925 10.8125C22.525 10.55 21.7375 10.1625 21.1875 9.975C20.6375 9.7875 19.7875 9.6 19.3125 9.55C18.4875 9.475 18.4 9.4875 18.0625 9.7875L17.6875 10.1ZM11.9375 14C11.5875 14.15 10.975 14.5125 10.5625 14.8C10.15 15.0875 9.5375 15.6625 9.2 16.075C8.8625 16.475 8.4375 17.1125 8.2375 17.5C8.05 17.875 7.8 18.4875 7.7 18.875C7.5875 19.25 7.4625 19.95 7.4125 20.4375C7.3625 21.0375 7.4 21.6375 7.55 22.375C7.6625 22.95 7.9625 23.85 8.2125 24.375C8.55 25.0875 8.9 25.55 9.6625 26.325C10.4375 27.0875 10.9125 27.45 11.625 27.7875C12.1375 28.0375 12.9875 28.325 13.525 28.425C14.0625 28.5375 14.7625 28.625 15.0875 28.625C15.4125 28.6125 16.075 28.5375 16.5625 28.4375C17.0375 28.3375 17.8875 28.025 18.4375 27.75C18.9875 27.4875 19.7375 26.9875 20.1125 26.6625C20.4875 26.325 21.0625 25.6375 21.4 25.125C21.7375 24.6 22.125 23.8125 22.2625 23.375C22.4 22.925 22.55 22.1125 22.5875 21.5625C22.6625 20.5625 22.65 20.55 22.3 20.275C21.9375 19.9875 21.8625 19.9875 18.9625 19.9875L16 20C16 13.975 16 13.925 15.7125 13.65C15.4875 13.425 15.3 13.375 14.6875 13.3875C14.275 13.3875 13.625 13.4625 13.25 13.5625C12.8625 13.65 12.275 13.85 11.9375 14ZM7.475 36.875C7.375 37.1125 7.375 37.2875 7.5125 37.6125C7.6 37.8375 7.775 38.075 7.9 38.1375C8.025 38.2 12.2 38.25 17.1875 38.25H26.25C26.75 37.7375 26.875 37.475 26.875 37.25C26.875 37.0125 26.75 36.75 26.5625 36.5625L26.25 36.25C10.525 36.2625 8.1125 36.3 7.9 36.4125C7.7375 36.4875 7.55 36.7 7.475 36.875ZM7.4375 44.4625C7.375 44.8 7.4375 44.9375 7.75 45.25L8.125 45.625C29.0625 45.625 31.175 45.5875 31.4625 45.45C31.65 45.3625 31.85 45.1875 31.9 45.075C31.95 44.9625 32 44.75 32 44.5875C32 44.4375 31.8875 44.15 31.75 43.9625L31.5 43.625C8.7625 43.625 8.0125 43.6375 7.7625 43.8375C7.6125 43.9625 7.4625 44.2375 7.4375 44.4625ZM7.5625 51.3875C7.4625 51.55 7.3625 51.8125 7.3625 51.9625C7.3625 52.125 7.5125 52.3875 7.6875 52.5625L8 52.875H41.5C41.8875 52.3375 42 52.0375 42 51.875C42 51.7 41.85 51.4125 41.675 51.25L41.35 50.9375C15.675 50.9 8.1875 50.9375 8.0375 51C7.8875 51.05 7.675 51.2375 7.5625 51.3875ZM57.0375 48.2625C57.1 48.25 57.8875 49.575 58.7875 51.2125C59.6875 52.8375 60.5625 54.35 60.7125 54.5875C60.8875 54.85 61 55.1875 61 55.525C61 55.8625 60.8875 56.275 60.7 56.625C60.525 56.925 60.2 57.35 59.975 57.5375C59.75 57.7375 59.3375 58.0125 59.0625 58.15C58.7875 58.2875 58.275 58.4375 57.9375 58.475C57.5125 58.5125 57.1125 58.475 56.75 58.3375C56.425 58.225 56.075 57.9875 55.9375 57.7875C55.8125 57.5875 54.8875 56.0375 53.9125 54.3375C52.925 52.6375 52.125 51.2 52.125 51.15C52.125 51.1 53.2 50.4375 54.525 49.6625C55.85 48.9 56.975 48.2625 57.0375 48.2625ZM36.3125 5.25C36.3375 5.25 38.35 7.2375 45.1875 14.125H36.25V9.6875C36.25 7.2375 36.275 5.25 36.3125 5.25ZM45.6875 22.5625C46.375 22.6 47.4125 22.7375 48 22.875C48.575 23.025 49.45 23.325 49.9375 23.5375C50.4125 23.7625 51.15 24.175 51.5625 24.45C51.975 24.725 52.675 25.3125 53.125 25.7625C53.5625 26.2 54.225 27.0125 54.5875 27.5625C54.95 28.1125 55.4125 29 55.625 29.525C55.825 30.0625 56.0875 30.875 56.2 31.3375C56.325 31.8625 56.4 32.725 56.4 33.625C56.4 34.45 56.325 35.4375 56.2125 35.9375C56.1125 36.4125 55.8625 37.2 55.675 37.6875C55.4875 38.1625 55.1 38.95 54.825 39.4375C54.55 39.9125 53.8625 40.775 53.3125 41.35C52.7625 41.925 51.8875 42.6625 51.375 42.9875C50.85 43.325 50.1 43.7375 49.6875 43.9125C49.275 44.075 48.625 44.3125 48.25 44.425C47.8625 44.525 47.0375 44.675 46.4 44.7375C45.6 44.8375 44.8875 44.825 44.0875 44.7375C43.425 44.6625 42.4 44.425 41.6875 44.175C41 43.9375 39.9875 43.4875 39.45 43.15C38.9 42.825 38.05 42.1625 37.5625 41.6875C37.0625 41.2 36.375 40.3875 36.0375 39.875C35.7 39.35 35.25 38.5125 35.025 38C34.8125 37.475 34.5375 36.6625 34.4125 36.1875C34.2625 35.5625 34.2 34.825 34.2 33.625C34.2125 32.3 34.275 31.7125 34.475 30.9375C34.625 30.3875 34.975 29.45 35.25 28.875C35.5375 28.2875 36.05 27.425 36.4125 26.95C36.7625 26.475 37.3375 25.825 37.6875 25.5125C38.0375 25.1875 38.625 24.725 39 24.475C39.375 24.2375 40.025 23.8625 40.4375 23.65C40.85 23.4375 41.575 23.15 42.0625 23.0125C42.5375 22.8625 43.275 22.6875 43.6875 22.625C44.1 22.5625 45 22.5375 45.6875 22.5625ZM41.625 25.9375C41.2375 26.125 40.575 26.525 40.15 26.825C39.725 27.125 39.0875 27.725 38.7375 28.15C38.3875 28.5875 37.8875 29.3875 37.6125 29.9375C37.3375 30.4875 37.025 31.35 36.9125 31.875C36.775 32.5375 36.7375 33.1875 36.7875 34.125C36.825 34.9875 36.9375 35.7125 37.125 36.25C37.275 36.6875 37.575 37.4 37.7875 37.8125C38.025 38.2625 38.6 38.9875 39.2375 39.6375C39.825 40.225 40.6125 40.875 41 41.0875C41.375 41.3 42.1125 41.625 42.65 41.8C43.225 41.9875 44.0625 42.15 44.7125 42.2C45.475 42.25 46.125 42.2125 46.875 42.075C47.575 41.95 48.325 41.6875 49.0875 41.3125C49.925 40.9 50.4875 40.5125 51.125 39.9C51.6125 39.4375 52.225 38.725 52.4875 38.3125C52.75 37.9 53.1 37.1875 53.275 36.75C53.45 36.3 53.675 35.5375 53.75 35.0625C53.8375 34.55 53.875 33.7375 53.8375 33.125C53.7875 32.5375 53.6375 31.6625 53.4875 31.1875C53.3375 30.7 53.0375 29.975 52.8 29.5625C52.575 29.15 52.1375 28.5125 51.85 28.1625C51.55 27.8125 51.025 27.2875 50.6875 27.0125C50.3375 26.725 49.75 26.3375 49.375 26.1375C48.9875 25.9375 48.3125 25.65 47.875 25.5C47.275 25.2875 46.6625 25.2125 45.5625 25.175C44.3625 25.125 43.875 25.1625 43.1875 25.35C42.7 25.4875 42 25.75 41.625 25.9375ZM53.35 44.125C53.375 44.125 53.7625 44.7875 54.2125 45.5875C54.975 46.975 55.0125 47.0625 54.7875 47.225C54.6625 47.3125 54 47.7 53.3125 48.0875C52.1125 48.75 52.05 48.775 51.9 48.55C51.8125 48.4125 51.4125 47.7625 51.025 47.0875C50.625 46.4125 50.3375 45.85 50.375 45.825C50.4 45.8 50.825 45.575 51.3125 45.325C51.7875 45.0875 52.4375 44.7125 52.75 44.5C53.05 44.3 53.325 44.125 53.35 44.125ZM19.6625 11.5875L20.05 11.675C20.2625 11.7125 20.775 11.9125 21.1875 12.125C21.6 12.325 22.1125 12.6625 22.3375 12.875C22.5625 13.075 22.95 13.5125 23.2 13.8375C23.45 14.1625 23.7 14.575 23.775 14.75C23.8375 14.9125 23.975 15.3 24.25 16.125H19.625L19.6625 11.5875ZM13.775 15.4875C13.975 15.4875 13.9875 15.7125 13.9875 21.2375L14.7375 21.9875H20.4875L20.425 22.4625C20.375 22.7125 20.1625 23.2625 19.95 23.6625C19.7375 24.075 19.25 24.6875 18.8625 25.0375C18.4875 25.4 17.8625 25.8375 17.4625 26.025C17.0625 26.2125 16.3625 26.425 15.9 26.5125C15.2625 26.625 14.85 26.625 14.175 26.5125C13.7 26.4375 12.9375 26.1875 12.4875 25.975C12.05 25.75 11.4 25.2875 11.05 24.9375C10.7 24.5875 10.25 23.9625 10.0375 23.55C9.825 23.1375 9.5875 22.4125 9.5 21.925C9.3625 21.2375 9.3625 20.8625 9.475 20.175C9.55 19.7 9.775 18.9625 9.975 18.55C10.1625 18.1375 10.5125 17.5875 10.75 17.3125C10.9875 17.05 11.4 16.6625 11.675 16.4375C11.95 16.225 12.4875 15.925 12.8625 15.775C13.25 15.625 13.65 15.5 13.775 15.4875ZM45.2375 27.125C45.7625 27.1125 46.5125 27.2 46.925 27.3125C47.3375 27.4125 48.0125 27.6875 48.425 27.9C48.8375 28.125 49.5375 28.65 49.9625 29.0875C50.5 29.625 50.875 30.15 51.175 30.775C51.4 31.275 51.6625 32.0375 51.75 32.4875C51.85 32.9875 51.875 33.6625 51.825 34.2125C51.775 34.7125 51.6125 35.4625 51.4625 35.9C51.3 36.325 50.9125 37.0625 50.5875 37.525C50.175 38.1125 49.725 38.55 49.0875 38.9875C48.5875 39.3375 47.8125 39.75 47.3625 39.9C46.75 40.1125 46.2625 40.175 45.3 40.175C44.3 40.175 43.875 40.1125 43.175 39.875C42.7 39.7 41.975 39.3375 41.5625 39.0625C41.1625 38.775 40.6125 38.3 40.35 37.9875C40.0875 37.675 39.7 37.1125 39.5 36.7375C39.3 36.3625 39.05 35.7125 38.9375 35.3C38.825 34.8875 38.7375 34.1625 38.7375 33.675C38.7375 33.2 38.825 32.475 38.925 32.0875C39.0375 31.6875 39.3 31.0125 39.5125 30.5875C39.7375 30.1375 40.225 29.475 40.6625 29.0375C41.1 28.6 41.7625 28.1125 42.2125 27.8875C42.6375 27.6625 43.2875 27.4125 43.65 27.3125C44.0125 27.2125 44.725 27.125 45.2375 27.125Z" fill="#704FE6"/>
</svg>
