<svg width="64" height="64" viewBox="0 0 64 64" fill="none" xmlns="http://www.w3.org/2000/svg">
<path fill-rule="evenodd" clip-rule="evenodd" d="M9.23725 9.23737C5.33325 13.1467 5.33325 19.4294 5.33325 32C5.33325 44.5707 5.33325 50.856 9.23725 54.76C13.1466 58.6667 19.4293 58.6667 31.9999 58.6667C44.5706 58.6667 50.8559 58.6667 54.7599 54.76C58.6666 50.8587 58.6666 44.5707 58.6666 32C58.6666 19.4294 58.6666 13.144 54.7599 9.23737C50.8586 5.33337 44.5706 5.33337 31.9999 5.33337C19.4293 5.33337 13.1439 5.33337 9.23725 9.23737ZM35.9679 17.1894C36.4798 17.3269 36.9161 17.6619 37.1811 18.1209C37.4461 18.5799 37.5181 19.1253 37.3812 19.6374L30.4799 45.3974C30.4118 45.6511 30.2944 45.8889 30.1344 46.0972C29.9743 46.3056 29.7749 46.4804 29.5473 46.6116C29.0877 46.8766 28.5416 46.9483 28.0292 46.8107C27.5169 46.6731 27.0801 46.3377 26.815 45.8781C26.55 45.4185 26.4784 44.8724 26.6159 44.36L33.5199 18.6027C33.6574 18.0908 33.9925 17.6545 34.4515 17.3895C34.9105 17.1245 35.4559 17.0525 35.9679 17.1894ZM39.9199 22.5867C40.2949 22.2122 40.8032 22.0018 41.3332 22.0018C41.8633 22.0018 42.3716 22.2122 42.7466 22.5867L43.3039 23.1414C44.9972 24.8347 46.4106 26.248 47.3812 27.52C48.4052 28.864 49.1253 30.2827 49.1253 32C49.1253 33.7174 48.4052 35.136 47.3812 36.48C46.4106 37.752 44.9973 39.1654 43.3013 40.8587L42.7466 41.4134C42.5635 41.6099 42.3427 41.7675 42.0974 41.8768C41.852 41.9861 41.5872 42.0449 41.3186 42.0496C41.0501 42.0544 40.7834 42.005 40.5343 41.9044C40.2853 41.8038 40.0591 41.6541 39.8691 41.4641C39.6792 41.2742 39.5295 41.048 39.4289 40.799C39.3283 40.5499 39.2789 40.2832 39.2837 40.0146C39.2884 39.7461 39.3472 39.4813 39.4565 39.2359C39.5658 38.9906 39.7234 38.7698 39.9199 38.5867L40.3759 38.128C42.1946 36.3094 43.4132 35.088 44.1999 34.0534C44.9546 33.0667 45.1253 32.4907 45.1253 32C45.1253 31.5094 44.9546 30.9334 44.1999 29.9467C43.4132 28.9147 42.1946 27.6907 40.3759 25.872L39.9199 25.4134C39.5454 25.0384 39.335 24.53 39.335 24C39.335 23.47 39.5454 22.9617 39.9199 22.5867ZM21.2533 22.5867C21.6324 22.2334 22.1338 22.0411 22.652 22.0502C23.1701 22.0594 23.6645 22.2693 24.0309 22.6357C24.3973 23.0021 24.6072 23.4965 24.6164 24.0146C24.6255 24.5328 24.4332 25.0342 24.0799 25.4134L23.6239 25.872C21.8053 27.6907 20.5893 28.912 19.7999 29.9467C19.0453 30.9334 18.8773 31.5094 18.8773 32C18.8773 32.4907 19.0453 33.0667 19.7999 34.0534C20.5893 35.0854 21.8053 36.3094 23.6239 38.128L24.0826 38.5867C24.2735 38.7713 24.4258 38.9921 24.5305 39.2361C24.6352 39.4802 24.6902 39.7426 24.6924 40.0082C24.6946 40.2737 24.6439 40.5371 24.5432 40.7828C24.4425 41.0286 24.2939 41.2518 24.106 41.4395C23.9181 41.6272 23.6948 41.7756 23.4489 41.876C23.2031 41.9765 22.9397 42.027 22.6742 42.0245C22.4086 42.0221 22.1462 41.9668 21.9022 41.8619C21.6583 41.7569 21.4377 41.6045 21.2533 41.4134L20.6986 40.8587C19.0026 39.1654 17.5893 37.752 16.6186 36.48C15.5946 35.136 14.8773 33.7174 14.8773 32C14.8773 30.2827 15.5973 28.864 16.6186 27.52C17.5893 26.248 19.0026 24.8347 20.6986 23.1414L21.2533 22.5867Z" fill="#704FE6"/>
</svg>
