<svg width="64" height="64" viewBox="0 0 64 64" fill="none" xmlns="http://www.w3.org/2000/svg">
<path fill-rule="evenodd" clip-rule="evenodd" d="M5.3125 4H22L18 12H4V8.8125C4 6.45 4.0375 5.525 4.1625 5.2125C4.2625 5 4.55 4.625 4.825 4.4L5.3125 4ZM6.4125 6.7375C6.25 6.95 6.0875 7.3125 6.05 7.5375C6 7.7625 6.0125 8.175 6.0625 8.45C6.12083 8.78333 6.3 9.1 6.6 9.4C6.8625 9.6625 7.25 9.8875 7.5 9.95C7.7375 10 8.1625 10 8.4375 9.95C8.77083 9.88333 9.0875 9.7 9.3875 9.4C9.65 9.1375 9.8875 8.7625 9.9375 8.5125C9.9875 8.2625 9.9875 7.8625 9.95 7.6C9.9125 7.3375 9.7125 6.95 9.525 6.7375C9.3375 6.5125 9 6.2625 8.775 6.175C8.55 6.0875 8.1875 6.0125 7.9625 6.0125C7.7375 6.0125 7.3625 6.0875 7.1375 6.1875C6.9 6.275 6.575 6.525 6.4125 6.7375ZM12.4125 6.7375C12.25 6.95 12.0875 7.3125 12.05 7.5375C12 7.7625 12.0125 8.175 12.0625 8.45C12.1208 8.78333 12.3 9.1 12.6 9.4C12.8625 9.6625 13.25 9.8875 13.5 9.95C13.7375 10 14.1625 10 14.4375 9.95C14.7708 9.88333 15.0875 9.7 15.3875 9.4C15.65 9.1375 15.8875 8.7625 15.9375 8.5125C15.9875 8.2625 15.9875 7.8625 15.95 7.6C15.9125 7.3375 15.7125 6.95 15.525 6.7375C15.3375 6.5125 15 6.2625 14.775 6.175C14.55 6.0875 14.1875 6.0125 13.9625 6.0125C13.7375 6.0125 13.3625 6.0875 13.1375 6.1875C12.9 6.275 12.575 6.525 12.4125 6.7375ZM24 4.0125H26L22 12.0125H20L24 4.0125ZM28 4.0125L58.6875 4L59.175 4.4125C59.45 4.6375 59.7375 5 59.825 5.225C59.95 5.525 60 6.4625 60 12.0125H24L28 4.0125ZM4 14.0125H60V36.2C60 54.325 59.9625 58.4625 59.825 58.7875C59.7375 59.0125 59.4375 59.375 58.6875 60.0125H5.3125L4.8125 59.6C4.55 59.375 4.25 59.0125 4.1625 58.7875C4.025 58.4625 4 54.325 4 36.2V14.0125ZM18.0625 21.7C17.9792 21.9083 17.9792 22.1125 18.0625 22.3125C18.125 22.4875 19.6375 23.8375 21.4 25.3125C24.05 27.525 24.6875 28.0125 25 28.0125C25.2375 28.0125 25.5 27.8875 25.6875 27.7C25.8625 27.525 26 27.225 26 27.0375C26 26.85 25.9 26.575 25.7875 26.425C25.6625 26.275 24.4625 25.2375 23.125 24.125C21.775 23.0125 20.6875 22.0625 20.6875 22.0125C20.6875 21.95 21.775 21 23.125 19.8875C24.4625 18.775 25.6625 17.75 25.7875 17.5875C25.9 17.4375 26 17.1625 26 16.975C26 16.7875 25.8625 16.5 25.6875 16.325C25.4875 16.125 25.225 16.0125 25 16.0125C24.7 16.0125 24.0125 16.525 21.4125 18.7C19.6375 20.175 18.125 21.525 18.0625 21.7ZM31.075 21.6C29.25 24.6625 28 26.8875 28 27.075C28 27.2375 28.1375 27.525 28.3125 27.7C28.4875 27.875 28.775 28.0125 28.9625 28.0125C29.15 28.0125 29.425 27.9125 29.575 27.7875C29.725 27.675 31.225 25.25 32.925 22.4125C34.7375 19.3625 36 17.125 36 16.95C36 16.775 35.85 16.4875 35.6875 16.325C35.5 16.125 35.225 16.0125 35.0125 16.0125C34.8125 16.0125 34.5375 16.1 34.4 16.225C34.2625 16.35 32.7625 18.7625 31.075 21.6ZM38 16.975C38 17.1625 38.0625 17.4125 38.15 17.525C38.2375 17.65 39.4375 18.675 40.8125 19.8125C42.1875 20.9625 43.3125 21.9375 43.3125 22.0125C43.3125 22.075 42.1875 23.0625 40.8125 24.2C39.4375 25.3375 38.2375 26.375 38.15 26.4875C38.0625 26.6 37.9875 26.85 37.9875 27.0375C38 27.2375 38.125 27.5125 38.3125 27.7C38.5 27.8875 38.7625 28.0125 39 28.0125C39.3 28.0125 39.975 27.5 42.625 25.2875C44.9 23.3875 45.9125 22.475 45.95 22.2625C45.9875 22.0875 45.9875 21.8375 45.95 21.7C45.925 21.5625 44.425 20.225 42.625 18.725C39.95 16.4875 39.3 16.0125 38.9875 16.0125C38.75 16.0125 38.5 16.125 38.3125 16.3125C38.1375 16.4875 38 16.775 38 16.975ZM6.175 38.45C6.075 38.5875 5.9875 38.8375 5.9875 39.0125C5.9875 39.175 6.0875 39.4375 6.2125 39.5875C6.3375 39.75 7.475 40.3 8.8375 40.875C10.1625 41.425 11.25 41.9375 11.25 42.0125C11.25 42.075 10.1625 42.5875 8.8375 43.1375C7.475 43.7125 6.3375 44.275 6.2125 44.425C6.0875 44.575 5.9875 44.8375 5.9875 45.0125C5.9875 45.175 6.0875 45.4375 6.2125 45.5875C6.3375 45.75 7.475 46.3 8.8375 46.875C10.1625 47.425 11.25 47.9375 11.25 48.0125C11.25 48.075 10.1625 48.5875 8.8375 49.1375C7.475 49.7125 6.3375 50.275 6.2125 50.425C6.0875 50.575 5.9875 50.8375 5.9875 51.0125C5.9875 51.175 6.0875 51.4375 6.2125 51.5875C6.35 51.7625 9.15 53.025 13.625 54.9375C17.575 56.625 20.9125 58.0125 21.025 58.0125C21.15 58.0125 24.4625 56.625 28.4 54.9375C32.975 52.975 35.6375 51.775 35.7875 51.6C35.9 51.45 36 51.175 36 51.0125C36 50.8375 35.925 50.5875 35.825 50.45C35.725 50.3 34.65 49.775 33.2 49.1625C31.85 48.6 30.75 48.075 30.75 48.0125C30.75 47.9375 31.85 47.4125 33.2 46.85C34.65 46.2375 35.725 45.7125 35.825 45.575C35.925 45.4375 36 45.175 36 45.0125C36 44.8375 35.925 44.5875 35.825 44.45C35.725 44.3 34.6 43.7375 33.2 43.1375C31.8375 42.55 30.7375 42.0375 30.7375 42.0125C30.7375 41.975 31.8375 41.4625 33.2 40.8875C34.6 40.275 35.725 39.7125 35.825 39.575C35.925 39.4375 36 39.175 36 39.0125C36 38.8375 35.9 38.575 35.7875 38.425C35.6375 38.2375 32.9625 37.0375 28.4 35.075C24.4625 33.3875 21.125 32.0125 20.9625 32.025C20.8125 32.025 17.4625 33.4125 13.525 35.1125C9.1375 37 6.2875 38.2875 6.175 38.45ZM45.275 36.675C44.95 36.8375 44.35 37.2875 43.9375 37.6625C43.5125 38.05 43.0125 38.6625 42.7875 39.0875C42.5625 39.4875 42.3 40.1625 42.1875 40.575C42.0875 40.9875 42 41.625 42 42.0125C42 42.3875 42.0875 43.0375 42.1875 43.45C42.3 43.8625 42.5625 44.525 42.7875 44.9375C43.0125 45.35 43.5125 45.975 43.9375 46.3625C44.35 46.7375 45.025 47.2 45.4375 47.3875C45.85 47.575 46.325 47.7875 46.5 47.85C46.7375 47.9625 46.425 47.9875 45.0625 48C43.925 48 43.05 48.075 42.5875 48.2C42.2 48.3 41.575 48.5375 41.2125 48.7125C40.85 48.9 40.25 49.3375 39.875 49.7C39.4875 50.0625 39 50.6875 38.7875 51.0875C38.5625 51.4875 38.3 52.1625 38.1875 52.575C38.0875 52.9875 38 53.475 38 53.6625V54.0125H58C58 53.475 57.9125 52.9875 57.8 52.575C57.6875 52.1625 57.425 51.4875 57.2125 51.0875C56.9875 50.6875 56.5 50.0625 56.125 49.7C55.7375 49.3375 55.1375 48.9 54.775 48.7125C54.4125 48.5375 53.8 48.3 53.4 48.2C52.9375 48.075 52.0625 48 50.9375 48C49.5625 47.9875 49.25 47.9625 49.5 47.85C49.6625 47.7875 50.175 47.55 50.625 47.35C51.125 47.125 51.7125 46.7125 52.1625 46.275C52.625 45.825 53.05 45.2625 53.325 44.7C53.6125 44.1 53.8125 43.4875 53.9 42.825C54.0125 42.0625 54.0125 41.625 53.9 41.0125C53.8125 40.5625 53.575 39.825 53.3625 39.3875C53.15 38.9375 52.675 38.2625 52.3125 37.8875C51.95 37.5 51.325 37.0125 50.9125 36.8C50.5125 36.575 49.85 36.3125 49.4375 36.2C49.025 36.1 48.35 36.0125 47.9375 36.0125C47.525 36.025 46.8875 36.1 46.525 36.2C46.1625 36.3 45.6 36.5125 45.275 36.675ZM20.9625 34.15C21.05 34.1375 23.625 35.2 26.6875 36.5125C29.7375 37.8125 32.25 38.9375 32.25 39.0125C32.25 39.075 29.725 40.2125 21.0625 43.9125L15.4 41.4875C12.2875 40.1625 9.7375 39.0375 9.7375 39.0125C9.7375 38.975 12.225 37.8625 15.275 36.55C18.3125 35.2375 20.875 34.15 20.9625 34.15ZM13.9625 43.15C14.05 43.1375 15.625 43.775 17.4625 44.575C19.3 45.3625 20.9125 46.0125 21.025 46.0125C21.15 46.0125 22.775 45.35 28.0375 43.1L30.15 43.9875C31.3 44.475 32.25 44.9375 32.25 45.0125C32.25 45.075 29.725 46.2125 21.0625 49.9125L15.4 47.4875C12.2875 46.1625 9.7375 45.0375 9.7375 45.0125C9.7375 44.975 10.65 44.5375 11.775 44.05C12.8875 43.5625 13.875 43.15 13.9625 43.15ZM13.9625 49.15C14.05 49.1375 15.625 49.775 17.4625 50.575C19.3 51.3625 20.9125 52.0125 21.025 52.0125C21.15 52.0125 22.775 51.35 28.0375 49.1L30.15 49.9875C31.3 50.475 32.25 50.9375 32.25 51.0125C32.25 51.075 29.725 52.2125 21.0625 55.9125L15.4 53.4875C12.2875 52.1625 9.7375 51.0375 9.7375 51.0125C9.7375 50.975 10.65 50.5375 11.775 50.05C12.8875 49.5625 13.875 49.15 13.9625 49.15Z" fill="#704FE6"/>
</svg>
