<svg width="64" height="64" viewBox="0 0 64 64" fill="none" xmlns="http://www.w3.org/2000/svg">
<path fill-rule="evenodd" clip-rule="evenodd" d="M25.25 3.2625C37.6 3.25 37.825 3.25 38.875 3.5125C39.4625 3.65 40.325 3.975 40.8125 4.225C41.3625 4.5125 42 5 42.5375 5.525C43.1625 6.1625 43.5 6.6375 43.8625 7.4C44.1375 7.975 44.4125 8.7375 44.4875 9.0875C44.575 9.5 44.625 11.4875 44.625 14.25C44.625 17.7625 44.5875 18.75 44.4625 18.75C44.3875 18.75 43.975 18.9125 43.5625 19.1125C43.15 19.3 42.575 19.7125 42.275 20.0125C41.975 20.3125 41.575 20.9 41.3875 21.3125C41.1875 21.725 40.7875 22.7875 40.5 23.6875C40.2125 24.5875 39.925 25.3625 39.8625 25.4375C39.8125 25.5125 39.725 25.375 39.675 25.125C39.6375 24.8875 39.4625 24.425 39.3 24.0875C39.1375 23.7625 38.8375 23.3125 38.65 23.1C38.45 22.875 38.0125 22.5125 37.675 22.2875C37.3375 22.0625 36.7 21.7875 36.25 21.675C35.6875 21.5375 35.2125 21.5 34.6875 21.55C34.2625 21.6 33.5875 21.7875 33.125 22.0125C32.4125 22.35 31.9 22.8 28.9125 25.7875C26.1375 28.5625 25.4625 29.3125 25.2 29.875C25.025 30.25 24.825 30.875 24.75 31.25C24.65 31.7375 24.65 32.15 24.75 32.6875C24.825 33.1 25.025 33.75 25.2 34.125C25.4625 34.6875 26.1375 35.4375 28.9125 38.2125C31.9 41.2 32.4125 41.65 33.125 41.9875C33.6 42.2125 34.25 42.4 34.6875 42.45C35.425 42.525 35.45 42.5375 35.75 43.0875C35.925 43.4 36.3125 43.8875 36.625 44.1625C36.9375 44.45 37.5 44.825 37.875 45C38.4625 45.2625 38.7375 45.3125 39.75 45.3125C40.8375 45.3125 41.0125 45.275 41.75 44.9125C42.2375 44.675 42.7875 44.275 43.125 43.9125C43.425 43.5875 43.825 42.975 44.0125 42.5625C44.1875 42.15 44.4 41.675 44.475 41.5C44.575 41.275 44.6125 42.9375 44.6125 47.725C44.625 51.95 44.575 54.475 44.4875 54.9125C44.4125 55.2625 44.125 56.0375 43.8375 56.625C43.4625 57.375 43.075 57.925 42.5 58.5125C41.8875 59.1375 41.425 59.45 40.625 59.8375C40.0375 60.125 39.1375 60.4375 38.625 60.55C37.8 60.725 36.25 60.75 12.8125 60.75L11.625 60.4375C10.925 60.25 10.1 59.9125 9.625 59.6375C9.175 59.375 8.45 58.7625 8.0125 58.3C7.45 57.7 7.0625 57.125 6.7375 56.4375C6.475 55.8875 6.2125 55.1 6.1375 54.6875C6.0375 54.1625 6 47.2875 6 32C6 16.7125 6.0375 9.8375 6.1375 9.3125C6.2125 8.9 6.5 8.0875 6.775 7.5C7.175 6.65 7.4625 6.25 8.225 5.4875C8.875 4.85 9.45 4.4125 10 4.15C10.45 3.925 11.2375 3.6375 11.75 3.5125C12.6375 3.2875 13.3 3.275 25.25 3.2625ZM15.65 9.8125C16.4125 11.675 16.6625 12.1625 17.1375 12.6875C17.475 13.05 17.9875 13.4375 18.3875 13.625L19.0625 13.9375H31.6875C33.0125 13.2125 33.4625 12.8375 33.725 12.4875C33.9625 12.1875 34.5625 10.9125 35.075 9.6625L36 7.375C19.525 7.375 14.75 7.4125 14.75 7.475C14.75 7.525 15.1625 8.575 15.65 9.8125ZM18.4125 50.7375C18.2625 50.95 18.0875 51.3125 18.05 51.5375C18.0125 51.75 18.0125 52.15 18.05 52.4125C18.0875 52.6875 18.2875 53.0625 18.5375 53.325C18.75 53.5625 19.1375 53.825 19.375 53.8875C19.6375 53.9625 22.075 54 25.5875 53.975C31.2125 53.9375 31.3625 53.925 31.7125 53.675C31.9 53.5375 32.1875 53.225 32.35 52.9875C32.5375 52.7 32.6375 52.375 32.6375 52C32.6375 51.625 32.5375 51.3 32.35 51.0125C32.1875 50.775 31.9 50.4625 31.7125 50.325C31.3625 50.0625 31.225 50.0625 25.4625 50.0375C20.7625 50.0125 19.475 50.0375 19.1375 50.175C18.9 50.2625 18.575 50.5125 18.4125 50.7375ZM50.55 24.25C50.7625 24.3 51.05 24.4 51.1875 24.475C51.325 24.55 52.9125 26.0875 57.9875 31.1875V32.8125L54.7125 36.1C52.9125 37.9125 51.2625 39.4875 51.0625 39.5875C50.8625 39.6875 50.4625 39.775 50.1875 39.775C49.9125 39.775 49.5125 39.6875 49.3125 39.5875C49.1125 39.4875 48.85 39.3 48.7375 39.175C48.625 39.0375 48.4625 38.8 48.375 38.625C48.2875 38.45 48.225 38.0875 48.225 37.8125C48.225 37.5375 48.2875 37.175 48.375 37C48.4625 36.825 49.575 35.6375 53.1875 32L50.8625 29.6625C49.575 28.3625 48.4625 27.175 48.375 27C48.2875 26.825 48.225 26.4375 48.2375 26.125C48.2375 25.8125 48.3375 25.4 48.4625 25.2C48.5875 25 48.825 24.7375 49 24.6C49.175 24.475 49.5 24.325 49.7375 24.2625C49.975 24.2125 50.3375 24.2125 50.55 24.25ZM45.525 21.25C45.725 21.25 46.0625 21.325 46.275 21.425C46.5 21.5125 46.8375 21.75 47.025 21.95C47.2 22.15 47.4125 22.55 47.4875 22.85C47.625 23.3625 47.525 23.6875 44.6125 32.475C42.775 38.0125 41.475 41.725 41.3 41.975C41.125 42.2 40.775 42.4625 40.4625 42.575C40.1375 42.7 39.775 42.75 39.5 42.7C39.2625 42.6625 38.875 42.5125 38.65 42.375C38.425 42.2375 38.1375 41.8875 38 41.6C37.8625 41.3 37.75 40.925 37.75 40.75C37.75 40.575 39.1125 36.3625 40.775 31.375C42.4375 26.3875 43.925 22.15 44.075 21.95C44.2125 21.75 44.525 21.5125 44.7625 21.425C45 21.3375 45.3375 21.2625 45.525 21.25ZM35.6125 24.275C35.8625 24.325 36.2 24.4625 36.3625 24.5875C36.525 24.7125 36.7625 25.0125 36.8875 25.25C37.025 25.4875 37.125 25.9 37.125 26.1625C37.125 26.4125 37.0625 26.775 36.9875 26.975C36.9125 27.1625 35.8125 28.3625 32.1875 32L34.5875 34.4C36.675 36.5125 36.9875 36.875 37.0625 37.3125C37.1125 37.5875 37.125 38.0125 37.075 38.25C37.025 38.4875 36.8875 38.8375 36.75 39.0375C36.6125 39.225 36.3125 39.4625 36.0875 39.575C35.875 39.6875 35.4875 39.775 35.25 39.775C35.0125 39.775 34.675 39.7375 34.5 39.6875C34.325 39.6375 32.7375 38.1625 30.9625 36.4C29.1875 34.625 27.65 33.0375 27.55 32.85C27.45 32.65 27.375 32.275 27.375 32C27.375 31.725 27.45 31.35 27.55 31.1625C27.65 30.9625 29.1875 29.3625 30.9625 27.6C33.7125 24.85 34.2625 24.3625 34.675 24.275C34.9375 24.2125 35.3625 24.2125 35.6125 24.275Z" fill="#704FE6"/>
</svg>
